HIERARCHY
ROOT Hips
{
	OFFSET 0.000000 0.000000 0.000000
	CHANNELS 6 Xposition Yposition Zposition Zrotation Xrotation Yrotation
	JOINT Spine
	{
		OFFSET 0.000000 10.000000 0.000000
		CHANNELS 3 Zrotation Xrotation Yrotation
		JOINT Spine1
		{
			OFFSET 0.000000 15.000000 0.000000
			CHANNELS 3 Zrotation Xrotation Yrotation
			JOINT LeftShoulder
			{
				OFFSET 5.000000 0.000000 0.000000
				CHANNELS 3 Zrotation Xrotation Yrotation
				JOINT LeftArm
				{
					OFFSET 10.000000 0.000000 0.000000
					CHANNELS 3 Zrotation Xrotation Yrotation
					JOINT LeftForeArm
					{
						OFFSET 25.000000 0.000000 0.000000
						CHANNELS 3 Zrotation Xrotation Yrotation
						JOINT LeftHand
						{
							OFFSET 22.000000 0.000000 0.000000
							CHANNELS 3 Zrotation Xrotation Yrotation
							End Site
							{
								OFFSET 10.000000 0.000000 0.000000
							}
						}
					}
				}
			}
			JOINT RightShoulder
			{
				OFFSET -5.000000 0.000000 0.000000
				CHANNELS 3 Zrotation Xrotation Yrotation
				JOINT RightArm
				{
					OFFSET -10.000000 0.000000 0.000000
					CHANNELS 3 Zrotation Xrotation Yrotation
					JOINT RightForeArm
					{
						OFFSET -25.000000 0.000000 0.000000
						CHANNELS 3 Zrotation Xrotation Yrotation
						JOINT RightHand
						{
							OFFSET -22.000000 0.000000 0.000000
							CHANNELS 3 Zrotation Xrotation Yrotation
							End Site
							{
								OFFSET -10.000000 0.000000 0.000000
							}
						}
					}
				}
			}
			JOINT Neck
			{
				OFFSET 0.000000 15.000000 0.000000
				CHANNELS 3 Zrotation Xrotation Yrotation
				JOINT Head
				{
					OFFSET 0.000000 10.000000 0.000000
					CHANNELS 3 Zrotation Xrotation Yrotation
					End Site
					{
						OFFSET 0.000000 15.000000 0.000000
					}
				}
			}
		}
	}
	JOINT LeftUpLeg
	{
		OFFSET 10.000000 0.000000 0.000000
		CHANNELS 3 Zrotation Xrotation Yrotation
		JOINT LeftLeg
		{
			OFFSET 0.000000 -45.000000 0.000000
			CHANNELS 3 Zrotation Xrotation Yrotation
			JOINT LeftFoot
			{
				OFFSET 0.000000 -43.000000 0.000000
				CHANNELS 3 Zrotation Xrotation Yrotation
				JOINT LeftToeBase
				{
					OFFSET 0.000000 -5.000000 10.000000
					CHANNELS 3 Zrotation Xrotation Yrotation
					End Site
					{
						OFFSET 0.000000 0.000000 5.000000
					}
				}
			}
		}
	}
	JOINT RightUpLeg
	{
		OFFSET -10.000000 0.000000 0.000000
		CHANNELS 3 Zrotation Xrotation Yrotation
		JOINT RightLeg
		{
			OFFSET 0.000000 -45.000000 0.000000
			CHANNELS 3 Zrotation Xrotation Yrotation
			JOINT RightFoot
			{
				OFFSET 0.000000 -43.000000 0.000000
				CHANNELS 3 Zrotation Xrotation Yrotation
				JOINT RightToeBase
				{
					OFFSET 0.000000 -5.000000 10.000000
					CHANNELS 3 Zrotation Xrotation Yrotation
					End Site
					{
						OFFSET 0.000000 0.000000 5.000000
					}
				}
			}
		}
	}
}
MOTION
Frames: 6
Frame Time: 0.033337
0.159463 81.410165 -0.086046 -1.659705 5.066940 3.637943 -0.000000 0.000000 -22.074778 1.732459 -1.018949 0.153764 -9.214850 -0.000933 0.011582 -65.026217 -1.715857 4.883029 -15.657622 -0.197519 -1.300809 0.000000 0.000000 0.000000 -9.318226 -0.001096 0.013444 91.393211 6.423589 16.065216 -3.021188 -0.303827 10.657406 0.000000 0.000000 0.000000 -21.692975 45.000000 15.307644 0.000000 0.000000 0.000000 2.312008 -8.435513 0.170527 2.530015 34.252624 -0.779721 -8.688791 20.998425 -24.711161 0.000000 0.000000 0.000000 4.776732 -3.651636 0.152358 1.697618 28.180637 -0.426136 -14.304686 -8.993417 -25.402955 0.000000 0.000000 0.000000
0.159436 81.410101 -0.087178 -1.628064 5.003521 3.613822 0.000000 -0.000000 -22.175611 1.716544 -0.727427 0.108879 -9.159965 -0.000667 0.008324 -65.531977 -1.474669 4.069664 -15.731329 -0.179662 -1.683336 0.000000 0.000000 0.000000 -9.243329 -0.000761 0.009414 91.341248 6.356831 16.386356 -1.376712 -0.312784 11.011305 0.000000 0.000000 0.000000 -21.751013 45.000000 15.356274 0.000000 0.000000 0.000000 2.333085 -8.747877 0.178478 2.587422 34.950080 -0.814697 -8.573375 21.097788 -24.447512 0.000000 0.000000 0.000000 4.737720 -4.038285 0.167125 1.765012 29.099058 -0.458125 -14.220105 -9.762701 -25.052330 0.000000 0.000000 0.000000
0.159397 81.410110 -0.088720 -1.566361 4.917470 3.592252 0.000000 -0.000000 -22.300875 1.611026 -0.439228 0.064243 -9.000685 -0.000425 0.005404 -66.136136 -1.155721 3.118420 -15.720180 -0.153605 -2.128815 0.000000 0.000000 0.000000 -9.044313 -0.000459 0.005809 91.279677 6.297388 16.664849 0.701450 -0.307009 11.447202 0.000000 0.000000 0.000000 -21.643073 45.000000 15.333121 0.000000 0.000000 0.000000 2.354596 -9.171326 0.188880 2.666043 35.807235 -0.861434 -8.397802 21.521521 -24.197287 0.000000 0.000000 0.000000 4.662355 -4.631419 0.188644 1.861314 30.263241 -0.503364 -14.153928 -10.400693 -24.773218 0.000000 0.000000 0.000000
0.159322 81.410347 -0.090588 -1.460021 4.817438 3.591754 0.000000 0.000000 -22.417969 1.363855 -0.332468 0.046392 -8.690616 -0.000440 0.005796 -66.697386 -0.812159 2.352978 -15.530385 -0.123311 -2.470398 0.000000 0.000000 0.000000 -8.659075 -0.000437 0.005773 91.228785 6.281087 16.642108 2.828648 -0.281209 11.926055 0.000000 0.000000 0.000000 -21.286441 45.000000 15.233655 0.000000 0.000000 0.000000 2.372296 -9.655737 0.200398 2.763366 36.667797 -0.915868 -8.172798 22.400842 -24.065239 0.000000 0.000000 0.000000 4.533699 -5.424322 0.214880 1.985495 31.477161 -0.559592 -14.163307 -10.534575 -24.755002 0.000000 0.000000 0.000000
0.159157 81.410978 -0.092599 -1.311019 4.719165 3.636968 0.000000 0.000000 -22.475072 1.003879 -0.589588 0.076714 -8.275130 -0.000982 0.013570 -67.042539 -0.548560 2.191039 -15.121798 -0.098278 -2.486025 0.000000 0.000000 0.000000 -8.122873 -0.000878 0.012359 91.194338 6.333539 16.066875 4.457141 -0.252751 12.441545 0.000000 0.000000 0.000000 -20.787745 45.000000 15.167163 0.000000 0.000000 0.000000 2.387722 -10.078998 0.210588 2.874434 37.333492 -0.971264 -7.979616 23.412416 -24.107125 0.000000 0.000000 0.000000 4.352092 -6.269787 0.238474 2.127946 32.445308 -0.619203 -14.276227 -10.118858 -25.055852 0.000000 0.000000 0.000000
0.158824 81.412100 -0.094718 -1.133940 4.624722 3.751140 -0.000000 -0.000000 -22.438759 0.609494 -1.251526 0.149891 -7.851447 -0.002168 0.031585 -67.072089 -0.445136 2.824938 -14.485771 -0.084148 -2.065239 0.000000 0.000000 0.000000 -7.535796 -0.001673 0.025401 91.139595 6.461915 14.905294 5.312442 -0.251845 13.058603 0.000000 0.000000 0.000000 -20.323715 45.000000 15.251152 0.000000 0.000000 0.000000 2.405057 -10.323731 0.217295 3.002891 37.707473 -1.025619 -7.910967 23.974654 -24.250748 0.000000 0.000000 0.000000 4.126292 -6.982871 0.251864 2.285101 32.997660 -0.676909 -14.453377 -9.514641 -25.520433 0.000000 0.000000 0.000000
